<mxfile host="app.diagrams.net" modified="2021-10-01T03:25:29.145Z" agent="5.0 (Macintosh; Intel Mac OS X 10_15_7) AppleWebKit/537.36 (KHTML, like Gecko) Chrome/93.0.4577.82 Safari/537.36" etag="3riIBLyZDcbnNomqMPkt" version="15.4.0" type="github">
  <diagram name="Page-1" id="c4acf3e9-155e-7222-9cf6-157b1a14988f">
    <mxGraphModel dx="1395" dy="936" grid="1" gridSize="10" guides="1" tooltips="1" connect="1" arrows="1" fold="1" page="1" pageScale="1" pageWidth="850" pageHeight="1100" background="none" math="0" shadow="0">
      <root>
        <mxCell id="0" />
        <mxCell id="1" parent="0" />
        <mxCell id="5d2195bd80daf111-35" style="edgeStyle=orthogonalEdgeStyle;rounded=0;html=1;dashed=1;labelBackgroundColor=none;startFill=0;endArrow=open;endFill=0;endSize=10;fontFamily=Verdana;fontSize=10;" parent="1" edge="1">
          <mxGeometry relative="1" as="geometry">
            <Array as="points">
              <mxPoint x="545" y="970" />
              <mxPoint x="545" y="970" />
            </Array>
            <mxPoint x="545" y="963" as="sourcePoint" />
          </mxGeometry>
        </mxCell>
        <mxCell id="5d2195bd80daf111-36" style="edgeStyle=orthogonalEdgeStyle;rounded=0;html=1;dashed=1;labelBackgroundColor=none;startFill=0;endArrow=open;endFill=0;endSize=10;fontFamily=Verdana;fontSize=10;" parent="1" edge="1">
          <mxGeometry relative="1" as="geometry">
            <Array as="points">
              <mxPoint x="550" y="520" />
            </Array>
            <mxPoint x="490" y="520" as="targetPoint" />
          </mxGeometry>
        </mxCell>
        <mxCell id="5d2195bd80daf111-34" style="edgeStyle=orthogonalEdgeStyle;rounded=0;html=1;dashed=1;labelBackgroundColor=none;startFill=0;endArrow=open;endFill=0;endSize=10;fontFamily=Verdana;fontSize=10;" parent="1" edge="1">
          <mxGeometry relative="1" as="geometry">
            <Array as="points">
              <mxPoint x="410" y="1029" />
              <mxPoint x="410" y="1029" />
            </Array>
            <mxPoint x="490" y="1029" as="targetPoint" />
          </mxGeometry>
        </mxCell>
        <mxCell id="5d2195bd80daf111-30" style="edgeStyle=orthogonalEdgeStyle;rounded=0;html=1;dashed=1;labelBackgroundColor=none;startFill=0;endArrow=open;endFill=0;endSize=10;fontFamily=Verdana;fontSize=10;" parent="1" edge="1">
          <mxGeometry relative="1" as="geometry">
            <Array as="points">
              <mxPoint x="300" y="580" />
              <mxPoint x="300" y="642" />
            </Array>
            <mxPoint x="250" y="580" as="sourcePoint" />
          </mxGeometry>
        </mxCell>
        <mxCell id="5d2195bd80daf111-32" style="edgeStyle=orthogonalEdgeStyle;rounded=0;html=1;dashed=1;labelBackgroundColor=none;startFill=0;endArrow=open;endFill=0;endSize=10;fontFamily=Verdana;fontSize=10;" parent="1" edge="1">
          <mxGeometry relative="1" as="geometry">
            <Array as="points">
              <mxPoint x="170" y="780" />
            </Array>
            <mxPoint x="170" y="590" as="sourcePoint" />
          </mxGeometry>
        </mxCell>
        <mxCell id="5d2195bd80daf111-33" style="edgeStyle=orthogonalEdgeStyle;rounded=0;html=1;dashed=1;labelBackgroundColor=none;startFill=0;endArrow=open;endFill=0;endSize=10;fontFamily=Verdana;fontSize=10;" parent="1" edge="1">
          <mxGeometry relative="1" as="geometry">
            <Array as="points">
              <mxPoint x="140" y="978" />
            </Array>
            <mxPoint x="140" y="590" as="sourcePoint" />
          </mxGeometry>
        </mxCell>
        <mxCell id="Naqz7WwvthQqh0Y6qo8N-1" value="&lt;div style=&quot;text-align: justify&quot;&gt;&lt;span&gt;Dedicated VM&lt;/span&gt;&lt;/div&gt;" style="shape=cube;whiteSpace=wrap;html=1;boundedLbl=1;backgroundOutline=1;darkOpacity=0.05;darkOpacity2=0.1;fillColor=#dae8fc;strokeColor=#6c8ebf;" parent="1" vertex="1">
          <mxGeometry x="470" y="120" width="440" height="230" as="geometry" />
        </mxCell>
        <mxCell id="Naqz7WwvthQqh0Y6qo8N-4" value="Home Portal" style="shape=cube;whiteSpace=wrap;html=1;boundedLbl=1;backgroundOutline=1;darkOpacity=0.05;darkOpacity2=0.1;fillColor=#d5e8d4;strokeColor=#82b366;" parent="1" vertex="1">
          <mxGeometry x="90" y="130" width="320" height="230" as="geometry" />
        </mxCell>
        <mxCell id="Naqz7WwvthQqh0Y6qo8N-7" style="edgeStyle=orthogonalEdgeStyle;rounded=0;orthogonalLoop=1;jettySize=auto;html=1;entryX=0.5;entryY=0;entryDx=0;entryDy=0;entryPerimeter=0;" parent="1" source="Naqz7WwvthQqh0Y6qo8N-5" target="Naqz7WwvthQqh0Y6qo8N-6" edge="1">
          <mxGeometry relative="1" as="geometry" />
        </mxCell>
        <mxCell id="Naqz7WwvthQqh0Y6qo8N-5" value="&lt;div style=&quot;text-align: center&quot;&gt;&lt;span&gt;&lt;font color=&quot;#0000cc&quot;&gt;Bzaru.com Portal&lt;/font&gt;&lt;/span&gt;&lt;/div&gt;&lt;div&gt;&lt;b&gt;Functionality&lt;/b&gt;:&lt;/div&gt;&lt;div&gt;&lt;span&gt;1. Member Registration&lt;/span&gt;&lt;/div&gt;&lt;div&gt;&lt;span&gt;2. Member login&lt;/span&gt;&lt;/div&gt;&lt;div&gt;&lt;span&gt;3. Member product catalog&lt;/span&gt;&lt;/div&gt;&lt;div&gt;&lt;span&gt;4. Member checkout&lt;/span&gt;&lt;/div&gt;&lt;div&gt;&lt;span&gt;5. Membership management&lt;/span&gt;&lt;/div&gt;&lt;div&gt;&lt;span&gt;&lt;b&gt;Technology:&lt;/b&gt;&lt;/span&gt;&lt;/div&gt;&lt;div&gt;Wordpress+woocommerce solution&lt;/div&gt;&lt;div&gt;&lt;span&gt;&lt;br&gt;&lt;/span&gt;&lt;/div&gt;" style="rounded=0;whiteSpace=wrap;html=1;align=left;" parent="1" vertex="1">
          <mxGeometry x="125" y="170" width="250" height="160" as="geometry" />
        </mxCell>
        <mxCell id="Naqz7WwvthQqh0Y6qo8N-6" value="Data Store" style="shape=cylinder3;whiteSpace=wrap;html=1;boundedLbl=1;backgroundOutline=1;size=15;" parent="1" vertex="1">
          <mxGeometry x="185" y="494" width="130" height="80" as="geometry" />
        </mxCell>
        <mxCell id="Naqz7WwvthQqh0Y6qo8N-8" value="Home Portal" style="shape=cube;whiteSpace=wrap;html=1;boundedLbl=1;backgroundOutline=1;darkOpacity=0.05;darkOpacity2=0.1;fillColor=#f8cecc;strokeColor=#b85450;" parent="1" vertex="1">
          <mxGeometry x="460" y="400" width="445" height="230" as="geometry" />
        </mxCell>
        <mxCell id="Naqz7WwvthQqh0Y6qo8N-10" style="edgeStyle=orthogonalEdgeStyle;rounded=0;orthogonalLoop=1;jettySize=auto;html=1;entryX=1;entryY=0.5;entryDx=0;entryDy=0;entryPerimeter=0;" parent="1" source="Naqz7WwvthQqh0Y6qo8N-9" target="Naqz7WwvthQqh0Y6qo8N-6" edge="1">
          <mxGeometry relative="1" as="geometry" />
        </mxCell>
        <mxCell id="Naqz7WwvthQqh0Y6qo8N-11" style="edgeStyle=orthogonalEdgeStyle;rounded=0;orthogonalLoop=1;jettySize=auto;html=1;" parent="1" source="Naqz7WwvthQqh0Y6qo8N-9" target="Naqz7WwvthQqh0Y6qo8N-1" edge="1">
          <mxGeometry relative="1" as="geometry" />
        </mxCell>
        <mxCell id="Naqz7WwvthQqh0Y6qo8N-13" value="Create/Delete" style="edgeLabel;html=1;align=center;verticalAlign=middle;resizable=0;points=[];" parent="Naqz7WwvthQqh0Y6qo8N-11" vertex="1" connectable="0">
          <mxGeometry x="0.3295" relative="1" as="geometry">
            <mxPoint y="-13" as="offset" />
          </mxGeometry>
        </mxCell>
        <mxCell id="Naqz7WwvthQqh0Y6qo8N-9" value="&lt;div style=&quot;text-align: center&quot;&gt;&lt;font color=&quot;#0000cc&quot;&gt;Automated Custom eComm Launcher&lt;/font&gt;&lt;/div&gt;&lt;div&gt;&lt;span&gt;&lt;b&gt;Functionality:&lt;/b&gt;&lt;/span&gt;&lt;/div&gt;&lt;div&gt;&lt;span&gt;1. Fulfill&amp;nbsp;orders by provisioning hardware&amp;nbsp;&lt;/span&gt;&lt;/div&gt;&lt;div&gt;&lt;span&gt;2. Deploy preselected custom eCommerce solution&lt;/span&gt;&lt;/div&gt;&lt;div&gt;&lt;span&gt;2. Notify members&lt;/span&gt;&lt;/div&gt;&lt;div&gt;&lt;span&gt;3. Create/Delete Deployed Portals&lt;/span&gt;&lt;/div&gt;&lt;div&gt;&lt;span&gt;4. Update Membership and portal status&lt;/span&gt;&lt;/div&gt;&lt;div&gt;&lt;span&gt;5. Monitor and Notify&amp;nbsp; &amp;nbsp;&lt;/span&gt;&lt;/div&gt;&lt;div&gt;&lt;span&gt;&lt;b&gt;Technology:&lt;/b&gt;&lt;/span&gt;&lt;/div&gt;&lt;div&gt;&lt;span&gt;&lt;b&gt;TBD - Could be Java based solution to launch automated scripts to provision, deploy and destroy deployment of portals&lt;/b&gt;&lt;/span&gt;&lt;/div&gt;&lt;div&gt;&lt;span&gt;&lt;br&gt;&lt;/span&gt;&lt;/div&gt;" style="rounded=0;whiteSpace=wrap;html=1;align=left;" parent="1" vertex="1">
          <mxGeometry x="495" y="447" width="390" height="173" as="geometry" />
        </mxCell>
        <mxCell id="Naqz7WwvthQqh0Y6qo8N-12" value="&lt;div style=&quot;text-align: center&quot;&gt;&lt;span&gt;&lt;font color=&quot;#0000cc&quot;&gt;eComm Portal&amp;nbsp;&lt;/font&gt;&lt;/span&gt;&lt;/div&gt;&lt;div style=&quot;text-align: center&quot;&gt;&lt;span&gt;&lt;font color=&quot;#0000cc&quot;&gt;Member Managed&lt;/font&gt;&lt;/span&gt;&lt;/div&gt;&lt;div&gt;&lt;b&gt;Functionality&lt;/b&gt;:&lt;/div&gt;&lt;div&gt;&lt;span&gt;1. Member Registration&lt;/span&gt;&lt;/div&gt;&lt;div&gt;&lt;span&gt;2. Member login&lt;/span&gt;&lt;/div&gt;&lt;div&gt;&lt;span&gt;3. Member product catalog&lt;/span&gt;&lt;/div&gt;&lt;div&gt;&lt;span&gt;4. Member checkout&lt;/span&gt;&lt;/div&gt;&lt;div&gt;&lt;span&gt;5. Membership management&lt;/span&gt;&lt;/div&gt;&lt;div&gt;&lt;span&gt;&lt;b&gt;Technology:&lt;/b&gt;&lt;/span&gt;&lt;/div&gt;&lt;div&gt;Wordpress + Woocommerce prebuilt solution with predefined themes&lt;/div&gt;&lt;div&gt;&lt;span&gt;&lt;br&gt;&lt;/span&gt;&lt;/div&gt;" style="rounded=0;whiteSpace=wrap;html=1;align=left;" parent="1" vertex="1">
          <mxGeometry x="510" y="160" width="390" height="160" as="geometry" />
        </mxCell>
        <mxCell id="4_dkRQguBMF1F9O0BpIp-3" value="To Do: (Repeat for every product)&lt;br&gt;Simple site with a theme&lt;br&gt;Flow and Pages&lt;br&gt;Payment Gateway&lt;br&gt;Default sample products" style="text;html=1;strokeColor=none;fillColor=none;align=left;verticalAlign=middle;whiteSpace=wrap;rounded=0;" parent="1" vertex="1">
          <mxGeometry x="931" y="20" width="330" height="100" as="geometry" />
        </mxCell>
        <mxCell id="4_dkRQguBMF1F9O0BpIp-4" value="&lt;b&gt;To Do:&lt;/b&gt;&lt;br&gt;Guest Flow (Pages)&lt;br&gt;Membership Flow&lt;br&gt;Product Catalog&lt;br&gt;Payment Gateway&lt;br&gt;Choose Theme&lt;br&gt;Go Daddy&lt;br&gt;CPQ" style="text;html=1;strokeColor=none;fillColor=none;align=left;verticalAlign=middle;whiteSpace=wrap;rounded=0;" parent="1" vertex="1">
          <mxGeometry x="150" y="20" width="190" height="80" as="geometry" />
        </mxCell>
        <mxCell id="NnRii_O0wWIPi6HjAkRB-1" value="To Do: (Repeat for every product)&lt;br&gt;Create Infrastructure as a code for each product&lt;br&gt;POC&amp;nbsp;&lt;br&gt;" style="text;html=1;strokeColor=none;fillColor=none;align=left;verticalAlign=middle;whiteSpace=wrap;rounded=0;" parent="1" vertex="1">
          <mxGeometry x="940" y="400" width="400" height="100" as="geometry" />
        </mxCell>
        <mxCell id="NnRii_O0wWIPi6HjAkRB-2" value="&lt;b&gt;Product &amp;amp; User Experience&lt;/b&gt;&lt;br&gt;Biswa&amp;nbsp;&lt;br&gt;Ansham&lt;br&gt;&lt;br&gt;&lt;span style=&quot;font-family: &amp;#34;helvetica&amp;#34;&quot;&gt;WooCommerce/Wordpress - Biswa/Ansham&lt;/span&gt;" style="text;html=1;strokeColor=#d6b656;fillColor=#fff2cc;align=left;verticalAlign=middle;whiteSpace=wrap;rounded=0;" parent="1" vertex="1">
          <mxGeometry x="340" y="20" width="250" height="50" as="geometry" />
        </mxCell>
        <mxCell id="NnRii_O0wWIPi6HjAkRB-3" value="&lt;b&gt;Product &amp;amp; User Experience&lt;/b&gt;&lt;br&gt;Biswa&amp;nbsp;&lt;br&gt;Ansham&lt;br&gt;&lt;br&gt;&lt;br&gt;WooCommerce/Wordpress - IT Dev" style="text;html=1;strokeColor=#d6b656;fillColor=#fff2cc;align=left;verticalAlign=middle;whiteSpace=wrap;rounded=0;" parent="1" vertex="1">
          <mxGeometry x="931" y="160" width="250" height="100" as="geometry" />
        </mxCell>
        <mxCell id="NnRii_O0wWIPi6HjAkRB-4" value="&lt;span style=&quot;color: rgb(0 , 0 , 0) ; font-family: &amp;#34;helvetica&amp;#34; ; font-size: 12px ; font-style: normal ; font-weight: 400 ; letter-spacing: normal ; text-align: left ; text-indent: 0px ; text-transform: none ; word-spacing: 0px ; background-color: rgb(248 , 249 , 250) ; display: inline ; float: none&quot;&gt;R&amp;amp;D&lt;br&gt;WooCommerce/Wordpress - Developer&lt;br&gt;&lt;br&gt;Rakov&lt;br&gt;&lt;/span&gt;" style="text;whiteSpace=wrap;html=1;fillColor=#fff2cc;strokeColor=#d6b656;" parent="1" vertex="1">
          <mxGeometry x="941" y="520" width="240" height="80" as="geometry" />
        </mxCell>
      </root>
    </mxGraphModel>
  </diagram>
</mxfile>
